<?xml version="1.0" encoding="UTF-8" standalone="no"?>
<svg width="343px" height="122px" viewBox="0 0 343 122" version="1.1" xmlns="http://www.w3.org/2000/svg" xmlns:xlink="http://www.w3.org/1999/xlink" style="background: #FFFFFF;">
    <!-- Generator: Sketch 39.1 (31720) - http://www.bohemiancoding.com/sketch -->
    <title>BW</title>
    <desc>Created with Sketch.</desc>
    <defs></defs>
    <g id="Page-1" stroke="none" stroke-width="1" fill="none" fill-rule="evenodd">
        <g id="BW">
            <g id="logo" transform="translate(24.000000, 21.000000)">
                <text id="Funcloud" opacity="0.900000036" font-family="SourceSansPro-Light, Source Sans Pro" font-size="60" font-weight="300" letter-spacing="-1" fill="#48432D">
                    <tspan x="66.5" y="59">Funclou</tspan>
                    <tspan x="255.4" y="59">d</tspan>
                </text>
                <g id="Mark" transform="translate(0.000000, 3.000000)">
                    <polygon id="Fill-1" fill="#ACACAC" points="36.4572 36.321 42.8022 42.665 48.5852 36.882 42.2412 30.537"></polygon>
                    <polygon id="Fill-2" fill="#ACACAC" points="0 37.0824 5.784 42.8664 12.128 36.5214 6.344 30.7384"></polygon>
                    <polygon id="Fill-3" fill="#D0D0D0" points="24.192 61.2744 5.784 42.8664 0 48.6504 24.192 72.8434 48.586 48.4494 42.802 42.6654"></polygon>
                    <polygon id="Fill-4" fill="#4D4D4D" points="24.1924 48.586 12.1284 36.522 5.7844 42.866 24.1924 61.275 42.8014 42.665 36.4574 36.321"></polygon>
                    <polygon id="Fill-5" fill="#DADADA" points="24.3936 -0.0003 -0.0004 24.3937 6.3446 30.7387 24.3936 12.6887 42.2416 30.5367 48.5856 24.1927"></polygon>
                    <polygon id="Fill-6" fill="#595959" points="24.3935 24.257 36.4575 36.321 42.2415 30.537 24.3935 12.689 6.3445 30.738 12.1285 36.522"></polygon>
                    <polygon id="Fill-7" fill="#333333" points="12.1285 36.522 24.1925 48.586 36.4575 36.321 24.3935 24.257"></polygon>
                </g>
            </g>
        </g>
    </g>
</svg>